<svg width="31" height="18" viewBox="0 0 31 18" fill="none" xmlns="http://www.w3.org/2000/svg">
<path fill-rule="evenodd" clip-rule="evenodd" d="M20.365 17.3852C20.2486 17.2691 20.1562 17.1312 20.0932 16.9793C20.0302 16.8274 19.9977 16.6646 19.9977 16.5002C19.9977 16.3358 20.0302 16.173 20.0932 16.0211C20.1562 15.8693 20.2486 15.7313 20.365 15.6152L26.9825 9.00021L20.365 2.38521C20.2487 2.26899 20.1566 2.13102 20.0937 1.97917C20.0308 1.82732 19.9984 1.66457 19.9984 1.50021C19.9984 1.33585 20.0308 1.1731 20.0937 1.02125C20.1566 0.8694 20.2487 0.731427 20.365 0.615207C20.4812 0.498987 20.6192 0.406797 20.771 0.343899C20.9229 0.281001 21.0856 0.248629 21.25 0.248629C21.4143 0.248629 21.5771 0.281001 21.7289 0.343899C21.8808 0.406797 22.0187 0.498987 22.135 0.615207L29.635 8.11521C29.7514 8.23132 29.8437 8.36926 29.9067 8.52112C29.9698 8.67299 30.0022 8.83579 30.0022 9.00021C30.0022 9.16463 29.9698 9.32743 29.9067 9.47929C29.8437 9.63115 29.7514 9.76909 29.635 9.88521L22.135 17.3852C22.0188 17.5016 21.8809 17.594 21.729 17.657C21.5772 17.72 21.4144 17.7524 21.25 17.7524C21.0855 17.7524 20.9227 17.72 20.7709 17.657C20.619 17.594 20.4811 17.5016 20.365 17.3852V17.3852Z" fill="white"/>
<path fill-rule="evenodd" clip-rule="evenodd" d="M28.75 9C28.75 9.33152 28.6183 9.64946 28.3839 9.88388C28.1495 10.1183 27.8315 10.25 27.5 10.25L1.25 10.25C0.918479 10.25 0.600536 10.1183 0.366116 9.88388C0.131695 9.64946 0 9.33152 0 9C0 8.66848 0.131695 8.35054 0.366116 8.11612C0.600536 7.8817 0.918479 7.75 1.25 7.75L27.5 7.75C27.8315 7.75 28.1495 7.8817 28.3839 8.11612C28.6183 8.35054 28.75 8.66848 28.75 9Z" fill="white"/>
</svg>
