<svg width="40" height="40" viewBox="0 0 40 40" fill="none" xmlns="http://www.w3.org/2000/svg">
<path d="M19.545 12.917C21.5172 12.917 23.1978 13.6114 24.5867 15.0003C25.9756 16.3892 26.67 18.0559 26.67 20.0003C26.67 21.9448 25.9756 23.6114 24.5867 25.0003C23.1978 26.3892 21.5172 27.0837 19.545 27.0837C17.5728 27.0837 15.8922 26.3892 14.5034 25.0003C13.1145 23.6114 12.42 21.9448 12.42 20.0003C12.42 18.0559 13.1145 16.3892 14.5034 15.0003C15.8922 13.6114 17.5728 12.917 19.545 12.917ZM35.42 18.2503H39.0867V21.7503H35.42C35.0311 25.4725 33.5172 28.6531 30.8784 31.292C28.2395 33.9309 25.0589 35.4725 21.3367 35.917V39.5837H17.7534V35.917C14.0867 35.4725 10.92 33.9309 8.25336 31.292C5.58669 28.6531 4.05891 25.4725 3.67002 21.7503H0.00335693V18.2503H3.67002C4.05891 14.5281 5.58669 11.3475 8.25336 8.70866C10.92 6.06977 14.0867 4.5281 17.7534 4.08366V0.416992H21.3367V4.08366C25.0589 4.5281 28.2395 6.06977 30.8784 8.70866C33.5172 11.3475 35.0311 14.5281 35.42 18.2503ZM19.5867 32.417C23.0311 32.417 25.9617 31.2087 28.3784 28.792C30.795 26.3753 32.0034 23.4448 32.0034 20.0003C32.0034 16.5559 30.795 13.6253 28.3784 11.2087C25.9617 8.79199 23.0311 7.58366 19.5867 7.58366C16.1422 7.58366 13.1978 8.79199 10.7534 11.2087C8.30891 13.6253 7.08669 16.5559 7.08669 20.0003C7.08669 23.4448 8.30891 26.3753 10.7534 28.792C13.1978 31.2087 16.1422 32.417 19.5867 32.417Z" />
</svg>
